# xmcd
#
# Track frame offsets:
#	150
#	29334
#	55263
#	100375
#	166254
#	221755
#	249975
#	294636
#	333551
#
# Disc length: 4794 seconds
#
# Revision: 0
# Processed by: cddbd v1.5.2PL0 Copyright (c) Steve Scherf et al.
# Submitted via: audiograbber 1.83.01
#
DISCID=8412b809
DTITLE=Grateful Dead - 93-09-14 The Spectrum, Philadelphia PA
DYEAR=1900
DGENRE=
TTITLE0=Way To Go Home
TTITLE1=Crazy Fingers
TTITLE2=Corrina
TTITLE3=Drums
TTITLE4=Space
TTITLE5=The Last Time
TTITLE6=Wharf Rat
TTITLE7=Sugar Magnolia
TTITLE8=Brokedown Palace
EXTD=
EXTT0=
EXTT1=
EXTT2=
EXTT3=
EXTT4=
EXTT5=
EXTT6=
EXTT7=
EXTT8=
PLAYORDER=
